# xmcd
#
# Track frame offsets:
#	150
#	10426
#	21726
#	32927
#	45160
#	56553
#	67536
#	79000
#	90692
#	102521
#	113509
#	125135
#	136774
#	149329
#	161061
#	172184
#	183098
#	194664
#	205508
#	216168
#	227271
#	237271
#	247195
#	258523
#	271709
#	282601
#	291906
#	304846
#	315948
#
# Disc length: 4362 seconds
#
# Revision: 0
# Processed by: cddbd v1.5.2PL0 Copyright (c) Steve Scherf et al.
# Submitted via: EasyCDDAExtractor 10.2.0.1
#
DISCID=a411081d
DTITLE=Various Artist - Crescent City Bounce, From Blues To R&B In New Orlean
DTITLE=s - Disc A (1950-55)
DYEAR=2007
DGENRE=Blues
TTITLE0=Archibald - Stack-O-Lee (Pt.1)
TTITLE1=Archibald - Stack-O-Lee (Pt.2)
TTITLE2=Archibald - Shake, Baby, Shake
TTITLE3=Archibald - Ballin' With Archie
TTITLE4=Archibald - Ny Gal
TTITLE5=Archibald - Little Miss Muffet
TTITLE6=Archibald - Crescent City Bounce
TTITLE7=Archibald - She's Scattered Everywhere
TTITLE8=Archibald - Early Morning Blues
TTITLE9=Archibald - Soon As I Go Home
TTITLE10=Archibald - House Party Blues
TTITLE11=Archibald - Great Big Eyes (Those Little Reds)
TTITLE12=Archibald - Ballin' With Archie (Alt.)
TTITLE13=Smilin' Joe - Living On Borrowed Time
TTITLE14=Smilin' Joe - Lovesick Soul
TTITLE15=Smilin' Joe - Second Hand Love
TTITLE16=Smilin' Joe - Dinah
TTITLE17=Smilin' Joe - Won't Settle Down
TTITLE18=Smilin' Joe - Misery
TTITLE19=Smilin' Joe - A.B.C.'s (Pt.1)
TTITLE20=Smilin' Joe - A.B.C.'s (Pt.2)
TTITLE21=Smilin' Joe - How Long Must I Wait
TTITLE22=Smilin' Joe - Sleep Walking Woman
TTITLE23=Roosevelt Sykes - You Can't Be Lucky All The Time
TTITLE24=Roosevelt Sykes - Sweet Old Chicago
TTITLE25=Roosevelt Sykes - Blood Stains
TTITLE26=Roosevelt Sykes - Hush, Oh, Hush
TTITLE27=Roosevelt Sykes - I'm Tired
TTITLE28=Roosevelt Sykes - Crazy Fox
EXTD=
EXTT0=
EXTT1=
EXTT2=
EXTT3=
EXTT4=
EXTT5=
EXTT6=
EXTT7=
EXTT8=
EXTT9=
EXTT10=
EXTT11=
EXTT12=
EXTT13=
EXTT14=
EXTT15=
EXTT16=
EXTT17=
EXTT18=
EXTT19=
EXTT20=
EXTT21=
EXTT22=
EXTT23=
EXTT24=
EXTT25=
EXTT26=
EXTT27=
EXTT28=
PLAYORDER=
